<svg width="1263" height="845" viewBox="0 0 1263 845" fill="none" xmlns="http://www.w3.org/2000/svg">
<path d="M504 265.868C603.001 403.868 1121 402.737 1210 471.868C1299 541 1267 688.868 1170 764.868C1073 840.868 843 865 575 826C307 787 229.5 735.94 141 664C52.5 592.06 -16.9988 359.868 5.00095 194.868C27.0007 29.8679 162 -32.1325 248 15.8678C334.001 63.8681 405 127.868 504 265.868Z" fill="#C4C4C4"/>
<path d="M504 265.868C603.001 403.868 1121 402.737 1210 471.868C1299 541 1267 688.868 1170 764.868C1073 840.868 843 865 575 826C307 787 229.5 735.94 141 664C52.5 592.06 -16.9988 359.868 5.00095 194.868C27.0007 29.8679 162 -32.1325 248 15.8678C334.001 63.8681 405 127.868 504 265.868Z" fill="url(#paint0_linear)"/>
<defs>
<linearGradient id="paint0_linear" x1="65.5" y1="72.0001" x2="1175.5" y2="752.5" gradientUnits="userSpaceOnUse">
<stop offset="0.305802" stop-color="#4362AE"/>
<stop offset="0.742092" stop-color="#239998"/>
<stop offset="1" stop-color="#42B649"/>
</linearGradient>
</defs>
</svg>
