<svg width="33" height="33" viewBox="0 0 33 33" fill="none" xmlns="http://www.w3.org/2000/svg">
<path fill-rule="evenodd" clip-rule="evenodd" d="M16.7585 0.993183C7.92438 0.993183 0.76001 8.17723 0.76001 17.0398C0.76001 24.1282 5.34407 30.1429 11.702 32.2657C12.5025 32.4125 12.7943 31.917 12.7943 31.4915C12.7943 31.1103 12.7805 30.1016 12.7727 28.7629C8.32219 29.7322 7.38318 26.6115 7.38318 26.6115C6.65535 24.7577 5.60633 24.2641 5.60633 24.2641C4.15361 23.2692 5.71634 23.2889 5.71634 23.2889C7.32228 23.4022 8.16699 24.9429 8.16699 24.9429C9.59417 27.3947 11.9122 26.6864 12.8237 26.2756C12.9691 25.2393 13.3826 24.5321 13.8394 24.1311C10.2866 23.7253 6.55123 22.3492 6.55123 16.2005C6.55123 14.4481 7.17495 13.0168 8.19843 11.8948C8.03342 11.489 7.48435 9.8577 8.35558 7.64822C8.35558 7.64822 9.69828 7.21676 12.755 9.29227C14.0309 8.93666 15.4001 8.75936 16.7605 8.75246C18.1199 8.75936 19.4881 8.93666 20.766 9.29227C23.8208 7.21676 25.1615 7.64822 25.1615 7.64822C26.0347 9.8577 25.4856 11.489 25.3216 11.8948C26.347 13.0168 26.9658 14.4481 26.9658 16.2005C26.9658 22.365 23.2245 23.7214 19.661 24.1184C20.2346 24.6138 20.7464 25.593 20.7464 27.0903C20.7464 29.2347 20.7267 30.9655 20.7267 31.4915C20.7267 31.921 21.0155 32.4204 21.8268 32.2638C28.1799 30.137 32.76 24.1272 32.76 17.0398C32.76 8.17723 25.5956 0.993183 16.7585 0.993183Z" fill="black"/>
</svg>
