<svg width="351" height="351" viewBox="0 0 351 351" fill="none" xmlns="http://www.w3.org/2000/svg">
<path d="M204.6 29.69H146.36V256.19H204.6V29.69Z" fill="url(#paint0_linear)"/>
<path d="M264.63 97.89H214.77V256.19H264.63V97.89Z" fill="url(#paint1_linear)"/>
<path d="M137.63 133.26H87.77V256.18H137.63V133.26Z" fill="url(#paint2_linear)"/>
<path fill-rule="evenodd" clip-rule="evenodd" d="M111.86 205.28C109.841 205.28 107.867 205.879 106.188 207.001C104.509 208.123 103.2 209.717 102.427 211.583C101.654 213.448 101.452 215.501 101.846 217.482C102.24 219.462 103.213 221.282 104.64 222.71C106.068 224.137 107.888 225.11 109.868 225.504C111.849 225.898 113.902 225.696 115.767 224.923C117.633 224.15 119.227 222.841 120.349 221.162C121.471 219.483 122.07 217.509 122.07 215.49C122.07 212.782 120.994 210.185 119.08 208.27C117.165 206.356 114.568 205.28 111.86 205.28ZM111.86 223.28C110.315 223.28 108.805 222.822 107.52 221.963C106.235 221.104 105.234 219.884 104.644 218.456C104.053 217.029 103.899 215.458 104.201 213.943C104.503 212.427 105.248 211.036 106.341 209.944C107.434 208.852 108.827 208.109 110.342 207.809C111.858 207.509 113.429 207.665 114.856 208.257C116.283 208.85 117.502 209.853 118.359 211.138C119.216 212.424 119.672 213.935 119.67 215.48C119.671 216.506 119.47 217.522 119.078 218.47C118.686 219.418 118.111 220.28 117.385 221.005C116.66 221.731 115.798 222.306 114.85 222.698C113.902 223.09 112.886 223.291 111.86 223.29V223.28Z" fill="white"/>
<path fill-rule="evenodd" clip-rule="evenodd" d="M111.86 210.19C110.812 210.19 109.787 210.501 108.915 211.083C108.044 211.666 107.365 212.493 106.963 213.462C106.562 214.43 106.457 215.496 106.662 216.524C106.866 217.552 107.371 218.496 108.112 219.238C108.854 219.979 109.798 220.484 110.826 220.688C111.854 220.893 112.92 220.788 113.888 220.387C114.857 219.985 115.684 219.306 116.267 218.435C116.849 217.563 117.16 216.538 117.16 215.49C117.161 214.794 117.025 214.104 116.759 213.46C116.493 212.817 116.103 212.232 115.611 211.739C115.118 211.247 114.533 210.857 113.89 210.591C113.246 210.325 112.556 210.189 111.86 210.19ZM111.86 218.61C111.241 218.61 110.635 218.426 110.12 218.082C109.605 217.737 109.204 217.248 108.967 216.675C108.731 216.103 108.669 215.473 108.791 214.866C108.912 214.258 109.212 213.701 109.65 213.263C110.089 212.826 110.648 212.529 111.256 212.409C111.863 212.289 112.493 212.353 113.065 212.591C113.637 212.83 114.125 213.232 114.467 213.748C114.81 214.264 114.992 214.871 114.99 215.49C114.99 215.901 114.909 216.307 114.752 216.686C114.594 217.065 114.363 217.41 114.073 217.7C113.782 217.99 113.437 218.219 113.057 218.375C112.677 218.532 112.271 218.611 111.86 218.61Z" fill="white"/>
<path fill-rule="evenodd" clip-rule="evenodd" d="M242.2 174.55C240.18 174.548 238.204 175.145 236.524 176.267C234.843 177.388 233.533 178.982 232.759 180.848C231.985 182.714 231.782 184.768 232.176 186.749C232.569 188.731 233.542 190.551 234.97 191.98C236.399 193.408 238.219 194.381 240.201 194.774C242.182 195.168 244.236 194.965 246.102 194.191C247.968 193.417 249.562 192.107 250.683 190.426C251.805 188.746 252.402 186.77 252.4 184.75C252.397 182.046 251.322 179.453 249.41 177.54C247.497 175.628 244.904 174.553 242.2 174.55ZM242.2 192.55C240.655 192.55 239.145 192.092 237.861 191.234C236.577 190.376 235.576 189.156 234.985 187.729C234.393 186.302 234.239 184.731 234.54 183.216C234.841 181.701 235.585 180.31 236.677 179.218C237.77 178.125 239.161 177.381 240.676 177.08C242.191 176.779 243.762 176.933 245.189 177.525C246.616 178.116 247.836 179.117 248.694 180.401C249.552 181.685 250.01 183.195 250.01 184.74C250.011 185.766 249.81 186.783 249.418 187.732C249.026 188.681 248.451 189.543 247.726 190.269C247.001 190.995 246.139 191.571 245.191 191.965C244.243 192.358 243.226 192.56 242.2 192.56V192.55Z" fill="white"/>
<path fill-rule="evenodd" clip-rule="evenodd" d="M242.2 179.46C241.151 179.46 240.126 179.771 239.254 180.354C238.383 180.937 237.703 181.765 237.302 182.734C236.902 183.703 236.797 184.769 237.003 185.798C237.208 186.826 237.714 187.77 238.456 188.511C239.198 189.252 240.143 189.756 241.172 189.959C242.201 190.163 243.267 190.056 244.235 189.654C245.203 189.251 246.03 188.57 246.612 187.697C247.193 186.824 247.502 185.799 247.5 184.75C247.5 184.054 247.363 183.366 247.096 182.723C246.83 182.081 246.439 181.497 245.947 181.006C245.455 180.515 244.87 180.125 244.227 179.86C243.584 179.595 242.896 179.459 242.2 179.46ZM242.2 187.88C241.581 187.882 240.974 187.7 240.458 187.357C239.942 187.015 239.54 186.526 239.301 185.955C239.063 185.383 238.999 184.753 239.119 184.146C239.239 183.538 239.536 182.979 239.973 182.54C240.411 182.102 240.968 181.802 241.576 181.681C242.183 181.559 242.813 181.621 243.385 181.857C243.958 182.094 244.447 182.495 244.792 183.01C245.136 183.525 245.32 184.131 245.32 184.75C245.321 185.161 245.242 185.567 245.085 185.947C244.929 186.327 244.7 186.672 244.41 186.963C244.12 187.253 243.775 187.484 243.396 187.642C243.017 187.799 242.611 187.88 242.2 187.88Z" fill="white"/>
<path fill-rule="evenodd" clip-rule="evenodd" d="M175.37 145.14C173.35 145.138 171.374 145.735 169.694 146.857C168.013 147.978 166.703 149.572 165.929 151.438C165.155 153.304 164.952 155.358 165.346 157.339C165.739 159.321 166.712 161.141 168.14 162.57C169.569 163.998 171.389 164.971 173.371 165.364C175.352 165.758 177.406 165.555 179.272 164.781C181.138 164.007 182.732 162.697 183.853 161.016C184.975 159.336 185.572 157.36 185.57 155.34C185.567 152.636 184.492 150.043 182.58 148.13C180.667 146.218 178.074 145.143 175.37 145.14ZM175.37 163.14C173.825 163.142 172.314 162.686 171.028 161.829C169.743 160.972 168.74 159.753 168.147 158.326C167.555 156.899 167.399 155.328 167.699 153.812C167.999 152.297 168.742 150.904 169.834 149.811C170.926 148.718 172.317 147.973 173.833 147.671C175.348 147.369 176.919 147.523 178.346 148.114C179.774 148.704 180.994 149.705 181.853 150.99C182.712 152.275 183.17 153.785 183.17 155.33C183.173 156.356 182.973 157.372 182.582 158.321C182.191 159.27 181.617 160.132 180.893 160.858C180.168 161.585 179.307 162.161 178.36 162.554C177.412 162.948 176.396 163.15 175.37 163.15V163.14Z" fill="white"/>
<path fill-rule="evenodd" clip-rule="evenodd" d="M175.37 150.05C174.321 150.048 173.295 150.357 172.422 150.939C171.549 151.521 170.868 152.348 170.465 153.317C170.063 154.286 169.957 155.352 170.161 156.382C170.366 157.411 170.871 158.356 171.612 159.098C172.354 159.839 173.299 160.344 174.328 160.549C175.358 160.753 176.424 160.647 177.393 160.245C178.362 159.842 179.189 159.161 179.771 158.288C180.353 157.415 180.662 156.389 180.66 155.34C180.66 153.937 180.103 152.591 179.111 151.599C178.119 150.607 176.773 150.05 175.37 150.05ZM175.37 158.47C174.751 158.472 174.144 158.29 173.628 157.947C173.112 157.605 172.71 157.116 172.471 156.545C172.233 155.973 172.169 155.343 172.289 154.736C172.409 154.128 172.706 153.569 173.143 153.13C173.581 152.692 174.138 152.392 174.746 152.271C175.353 152.149 175.983 152.211 176.555 152.447C177.128 152.684 177.617 153.085 177.962 153.6C178.306 154.115 178.49 154.721 178.49 155.34C178.49 156.168 178.162 156.963 177.577 157.55C176.992 158.136 176.198 158.467 175.37 158.47Z" fill="white"/>
<path d="M111.86 256.02V225.69" stroke="white" stroke-width="2.77" stroke-miterlimit="22.93"/>
<path d="M122.07 215.49H175.37V165.55" stroke="white" stroke-width="2.77" stroke-miterlimit="22.93"/>
<path d="M185.57 155.34H242.2V174.55" stroke="white" stroke-width="2.77" stroke-miterlimit="22.93"/>
<path d="M242.2 194.96V256.19" stroke="white" stroke-width="2.77" stroke-miterlimit="22.93"/>
<defs>
<linearGradient id="paint0_linear" x1="175.48" y1="252.68" x2="175.48" y2="83.55" gradientUnits="userSpaceOnUse">
<stop stop-color="#44B649"/>
<stop offset="1" stop-color="#44B649"/>
</linearGradient>
<linearGradient id="paint1_linear" x1="239.7" y1="114.71" x2="239.7" y2="227.26" gradientUnits="userSpaceOnUse">
<stop stop-color="#4364AE"/>
<stop offset="1" stop-color="#4363AE"/>
</linearGradient>
<linearGradient id="paint2_linear" x1="112.7" y1="245.46" x2="112.7" y2="156.73" gradientUnits="userSpaceOnUse">
<stop stop-color="#289897"/>
<stop offset="1" stop-color="#289897"/>
</linearGradient>
</defs>
</svg>
