<svg width="63" height="80" viewBox="0 0 63 80" fill="none" xmlns="http://www.w3.org/2000/svg">
<g clip-path="url(#clip0)">
<path d="M41.2657 0.242126H20.8294V79.7158H41.2657V0.242126Z" fill="url(#paint0_linear)"/>
<path d="M62.3302 24.1719H44.8344V79.7158H62.3302V24.1719Z" fill="url(#paint1_linear)"/>
<path d="M17.766 36.5825H0.270203V79.7123H17.766V36.5825Z" fill="url(#paint2_linear)"/>
<path fill-rule="evenodd" clip-rule="evenodd" d="M8.72337 61.8526C8.01478 61.8526 7.3221 62.0627 6.73294 62.4564C6.14377 62.85 5.68457 63.4095 5.4134 64.0641C5.14224 64.7188 5.07129 65.4391 5.20953 66.134C5.34777 66.8289 5.68898 67.4673 6.19003 67.9683C6.69108 68.4693 7.32945 68.8105 8.02442 68.9487C8.71939 69.0869 9.43975 69.016 10.0944 68.7448C10.749 68.4737 11.3086 68.0145 11.7023 67.4254C12.0959 66.8363 12.306 66.1436 12.306 65.4351C12.306 64.485 11.9286 63.5738 11.2567 62.9019C10.5848 62.2301 9.67355 61.8526 8.72337 61.8526V61.8526ZM8.72337 68.1684C8.18119 68.1684 7.6512 68.0076 7.20045 67.7063C6.7497 67.4051 6.39844 66.9769 6.19112 66.4759C5.9838 65.975 5.92973 65.4238 6.03576 64.8922C6.14179 64.3605 6.40315 63.8722 6.78677 63.4891C7.17039 63.106 7.65903 62.8453 8.19087 62.7399C8.72271 62.6346 9.27385 62.6894 9.77455 62.8973C10.2753 63.1053 10.703 63.4571 11.0037 63.9082C11.3044 64.3593 11.4646 64.8894 11.4639 65.4316C11.4643 65.7916 11.3938 66.1481 11.2562 66.4808C11.1187 66.8135 10.9168 67.1158 10.6622 67.3703C10.4077 67.6249 10.1054 67.8267 9.77266 67.9643C9.43996 68.1018 9.08339 68.1724 8.72337 68.1719V68.1684Z" fill="white"/>
<path fill-rule="evenodd" clip-rule="evenodd" d="M8.72335 63.5754C8.35553 63.5754 7.99596 63.6845 7.69012 63.8888C7.38429 64.0932 7.14592 64.3836 7.00515 64.7234C6.86439 65.0632 6.82756 65.4372 6.89932 65.7979C6.97108 66.1586 7.14821 66.49 7.4083 66.7501C7.66839 67.0101 7.99977 67.1872 8.36053 67.259C8.72129 67.3308 9.09523 67.2939 9.43505 67.1532C9.77488 67.0124 10.0653 66.7741 10.2697 66.4683C10.474 66.1624 10.5831 65.8029 10.5831 65.4351C10.5836 65.1908 10.5358 64.9487 10.4425 64.7229C10.3492 64.4971 10.2122 64.2919 10.0394 64.1191C9.86665 63.9463 9.66144 63.8094 9.4356 63.7161C9.20975 63.6228 8.96771 63.575 8.72335 63.5754V63.5754ZM8.72335 66.5298C8.50598 66.5298 8.29349 66.4653 8.1128 66.3445C7.93211 66.2237 7.79134 66.0519 7.70831 65.851C7.62529 65.6502 7.60374 65.4292 7.64641 65.216C7.68907 65.0029 7.79402 64.8072 7.94798 64.6538C8.10193 64.5003 8.29796 64.396 8.51124 64.354C8.72452 64.312 8.94547 64.3343 9.1461 64.4179C9.34672 64.5016 9.51801 64.6429 9.63827 64.824C9.75854 65.0051 9.82236 65.2177 9.82166 65.4351C9.82167 65.5792 9.79323 65.7218 9.73799 65.8548C9.68275 65.9879 9.6018 66.1087 9.49976 66.2104C9.39773 66.3121 9.27663 66.3927 9.14339 66.4475C9.01016 66.5023 8.86742 66.5303 8.72335 66.5298V66.5298Z" fill="white"/>
<path fill-rule="evenodd" clip-rule="evenodd" d="M54.4595 51.0702C53.7506 51.0695 53.0575 51.2791 52.4678 51.6725C51.8781 52.0659 51.4183 52.6253 51.1467 53.2801C50.8751 53.9348 50.8039 54.6554 50.942 55.3507C51.0801 56.0459 51.4214 56.6846 51.9227 57.1858C52.4239 57.687 53.0626 58.0283 53.7579 58.1664C54.4532 58.3046 55.1739 58.2333 55.8287 57.9617C56.4834 57.6901 57.0429 57.2304 57.4363 56.6408C57.8297 56.0511 58.0394 55.358 58.0387 54.6491C58.0377 53.7002 57.6604 52.7904 56.9893 52.1195C56.3183 51.4485 55.4085 51.0711 54.4595 51.0702V51.0702ZM54.4595 57.386C53.9175 57.386 53.3876 57.2253 52.937 56.9241C52.4863 56.623 52.135 56.1951 51.9276 55.6943C51.7202 55.1936 51.6659 54.6426 51.7716 54.111C51.8774 53.5794 52.1384 53.0912 52.5217 52.7079C52.9049 52.3247 53.3932 52.0637 53.9249 51.9579C54.4565 51.8522 55.0075 51.9065 55.5083 52.1139C56.009 52.3213 56.437 52.6725 56.7382 53.1232C57.0393 53.5738 57.2 54.1036 57.2 54.6456C57.2005 55.0058 57.1299 55.3625 56.9924 55.6954C56.8549 56.0283 56.6531 56.3308 56.3986 56.5856C56.1441 56.8405 55.8418 57.0426 55.5091 57.1806C55.1763 57.3185 54.8197 57.3895 54.4595 57.3895V57.386Z" fill="white"/>
<path fill-rule="evenodd" clip-rule="evenodd" d="M54.4595 52.793C54.0915 52.793 53.7318 52.9021 53.4259 53.1066C53.12 53.3111 52.8816 53.6018 52.741 53.9418C52.6003 54.2818 52.5637 54.6559 52.6357 55.0167C52.7078 55.3775 52.8852 55.7089 53.1457 55.9688C53.4061 56.2288 53.7378 56.4056 54.0988 56.477C54.4598 56.5483 54.8339 56.511 55.1736 56.3697C55.5134 56.2284 55.8036 55.9895 56.0075 55.6832C56.2115 55.377 56.32 55.0171 56.3193 54.6491C56.3193 54.4051 56.2711 54.1634 56.1776 53.938C56.0841 53.7126 55.9471 53.5078 55.7743 53.3354C55.6016 53.163 55.3965 53.0263 55.1709 52.9333C54.9453 52.8402 54.7036 52.7925 54.4595 52.793V52.793ZM54.4595 55.7474C54.2421 55.7481 54.0294 55.6842 53.8483 55.564C53.6673 55.4437 53.526 55.2724 53.4423 55.0718C53.3586 54.8712 53.3364 54.6503 53.3783 54.437C53.4203 54.2237 53.5247 54.0277 53.6781 53.8738C53.8316 53.7198 54.0273 53.6149 54.2404 53.5722C54.4536 53.5296 54.6746 53.5511 54.8755 53.6341C55.0764 53.7172 55.2481 53.8579 55.369 54.0386C55.4898 54.2193 55.5543 54.4317 55.5543 54.6491C55.5548 54.7932 55.5268 54.9359 55.472 55.0691C55.4172 55.2023 55.3366 55.3235 55.2349 55.4255C55.1332 55.5275 55.0123 55.6085 54.8793 55.6637C54.7462 55.7189 54.6036 55.7474 54.4595 55.7474V55.7474Z" fill="white"/>
<path fill-rule="evenodd" clip-rule="evenodd" d="M31.0089 40.7509C30.3 40.7502 29.6069 40.9598 29.0172 41.3531C28.4275 41.7465 27.9677 42.306 27.6961 42.9607C27.4245 43.6155 27.3533 44.3361 27.4914 45.0313C27.6295 45.7266 27.9708 46.3653 28.4721 46.8665C28.9733 47.3677 29.612 47.709 30.3073 47.8471C31.0026 47.9852 31.7233 47.914 32.3781 47.6424C33.0329 47.3708 33.5924 46.9111 33.9858 46.3214C34.3792 45.7318 34.5888 45.0386 34.5881 44.3298C34.5872 43.3809 34.2098 42.4711 33.5387 41.8001C32.8677 41.1291 31.9579 40.7518 31.0089 40.7509ZM31.0089 47.0666C30.4667 47.0673 29.9365 46.9072 29.4854 46.6065C29.0343 46.3058 28.6825 45.8781 28.4745 45.3774C28.2665 44.8767 28.2118 44.3256 28.3171 43.7938C28.4225 43.262 28.6832 42.7734 29.0663 42.3898C29.4495 42.0062 29.9378 41.7449 30.4695 41.6389C31.0012 41.5328 31.5524 41.5869 32.0534 41.7942C32.5543 42.0015 32.9825 42.3527 33.2838 42.8035C33.5851 43.2542 33.7459 43.7842 33.7459 44.3263C33.7469 44.6863 33.6767 45.0429 33.5396 45.3758C33.4025 45.7087 33.201 46.0112 32.9468 46.2661C32.6925 46.521 32.3905 46.7232 32.0579 46.8612C31.7254 46.9991 31.3689 47.0701 31.0089 47.0701V47.0666Z" fill="white"/>
<path fill-rule="evenodd" clip-rule="evenodd" d="M31.009 42.4737C30.6408 42.473 30.2808 42.5816 29.9744 42.7856C29.668 42.9897 29.4291 43.2801 29.2879 43.6201C29.1467 43.96 29.1096 44.3342 29.1813 44.6953C29.2529 45.0563 29.4301 45.388 29.6904 45.6483C29.9507 45.9086 30.2824 46.0858 30.6435 46.1574C31.0046 46.2291 31.3788 46.192 31.7188 46.0508C32.0587 45.9096 32.3492 45.6707 32.5532 45.3643C32.7573 45.058 32.8659 44.6979 32.8652 44.3298C32.8652 43.8376 32.6696 43.3654 32.3215 43.0173C31.9734 42.6693 31.5013 42.4737 31.009 42.4737V42.4737ZM31.009 45.4281C30.7916 45.4288 30.5789 45.365 30.3978 45.2447C30.2167 45.1244 30.0754 44.9532 29.9918 44.7526C29.9081 44.5519 29.8858 44.331 29.9278 44.1177C29.9698 43.9045 30.0741 43.7085 30.2276 43.5545C30.381 43.4006 30.5767 43.2956 30.7899 43.253C31.003 43.2103 31.224 43.2318 31.4249 43.3149C31.6258 43.3979 31.7976 43.5386 31.9184 43.7193C32.0393 43.9 32.1038 44.1125 32.1038 44.3298C32.1038 44.6205 31.9885 44.8993 31.7833 45.1052C31.5781 45.311 31.2996 45.4272 31.009 45.4281V45.4281Z" fill="white"/>
<path d="M8.72333 79.6561V69.014" stroke="white" stroke-width="2.77" stroke-miterlimit="22.93"/>
<path d="M12.306 65.4351H31.0089V47.9123" stroke="white" stroke-width="2.77" stroke-miterlimit="22.93"/>
<path d="M34.5881 44.3298H54.4595V51.0702" stroke="white" stroke-width="2.77" stroke-miterlimit="22.93"/>
<path d="M54.4595 58.2316V79.7158" stroke="white" stroke-width="2.77" stroke-miterlimit="22.93"/>
</g>
<defs>
<linearGradient id="paint0_linear" x1="31.0476" y1="78.4842" x2="31.0476" y2="19.1404" gradientUnits="userSpaceOnUse">
<stop stop-color="#44B649"/>
<stop offset="1" stop-color="#44B649"/>
</linearGradient>
<linearGradient id="paint1_linear" x1="53.5823" y1="30.0737" x2="53.5823" y2="69.5649" gradientUnits="userSpaceOnUse">
<stop stop-color="#4364AE"/>
<stop offset="1" stop-color="#4363AE"/>
</linearGradient>
<linearGradient id="paint2_linear" x1="9.01811" y1="75.9509" x2="9.01811" y2="44.8175" gradientUnits="userSpaceOnUse">
<stop stop-color="#299897"/>
<stop offset="1" stop-color="#289897"/>
</linearGradient>
<clipPath id="clip0">
<rect width="62.46" height="80" fill="white"/>
</clipPath>
</defs>
</svg>
