<svg width="200" height="28" viewBox="0 0 200 28" fill="none" xmlns="http://www.w3.org/2000/svg">
<path d="M13.3962 4.996H21.8511V0.65094H0.211884V4.996H8.67463V27.3252H13.3962V4.996Z" fill="#283D61"/>
<path d="M36.7843 20.4312L30.4235 0.650968H25.3568L34.651 27.5134H38.6902L45.2471 8.35286L51.7961 27.5134H55.8353L65.1294 0.650968H60.2196L53.851 20.4312L47.302 0.580383H43.3412L36.7843 20.4312Z" fill="#283D61"/>
<path d="M75.4587 0.658813H70.8077V27.3252H75.4587V0.658813Z" fill="#283D61"/>
<path d="M101.82 19.0978L87.5685 0.65094H83.2313V27.3252H87.8744V8.35283L102.549 27.3252H106.47V0.65094H101.82V19.0978Z" fill="#283D61"/>
<path d="M113.937 27.3252H132.604V23.0899H118.58V0.65094H113.937V27.3252Z" fill="#283D61"/>
<path d="M143.043 0.658813H138.392V27.3252H143.043V0.658813Z" fill="#283D61"/>
<path d="M170.62 0.65094H150.808V27.3252H155.459V16.4625H168.91V12.2351H155.459V4.88621H170.62V0.65094Z" fill="#283D61"/>
<path d="M188.988 16.6978L199.576 0.65094H194.204L186.659 12.4626L179.192 0.65094H173.671L184.259 16.8076V27.3252H188.988V16.6978Z" fill="#283D61"/>
</svg>
